<?xml version="1.0" standalone="no"?>
<!DOCTYPE svg PUBLIC "-//W3C//DTD SVG 20010904//EN"
 "http://www.w3.org/TR/2001/REC-SVG-20010904/DTD/svg10.dtd">
<svg version="1.0" xmlns="http://www.w3.org/2000/svg"
 width="666.000000pt" height="224.000000pt" viewBox="0 0 666.000000 224.000000"
 preserveAspectRatio="xMidYMid meet">
<metadata>
Created by potrace 1.16, written by Peter Selinger 2001-2019
</metadata>
<g transform="translate(0.000000,224.000000) scale(0.100000,-0.100000)"
fill="#000000" stroke="none">
<path d="M6160 2083 c0 -7 -4 -13 -10 -13 -5 0 -7 -12 -4 -27 6 -36 0 -44 -65
-79 -130 -70 -205 -197 -179 -304 12 -51 74 -173 104 -205 l26 -28 -36 -187
c-41 -214 -41 -210 -23 -210 9 0 20 28 31 78 39 183 59 262 65 262 4 0 31 -24
62 -52 31 -29 89 -80 129 -113 73 -59 136 -122 154 -154 16 -27 26 -111 16
-137 -8 -21 -13 -23 -29 -14 -26 13 -28 13 -35 -6 -4 -9 -1 -23 5 -30 15 -19
5 -42 -26 -56 -21 -10 -28 -9 -35 2 -12 19 -43 -6 -35 -29 3 -12 -5 -21 -30
-33 -19 -8 -36 -11 -37 -6 -5 13 -38 -1 -38 -16 0 -27 22 -35 49 -17 14 10 52
33 85 52 71 41 133 103 141 141 4 16 14 42 22 59 14 29 14 32 0 41 -9 5 -24
25 -34 46 -21 44 -82 106 -218 221 -55 47 -110 97 -122 112 -22 26 -22 27 -6
112 16 84 17 85 40 74 19 -9 26 -8 34 4 13 21 11 27 -10 39 -16 8 -22 6 -30
-7 -15 -26 -13 -3 7 90 10 43 21 74 26 70 5 -4 6 4 2 20 -4 16 -2 27 4 27 6 0
10 10 8 23 -4 34 12 117 23 117 5 0 7 11 3 25 -3 14 -2 25 4 25 5 0 9 22 9 48
-1 43 -3 48 -24 48 -13 0 -23 -6 -23 -13z m-28 -130 c-5 -10 -7 -24 -5 -30 3
-7 -1 -13 -7 -13 -8 0 -11 -10 -8 -25 3 -14 1 -25 -4 -25 -6 0 -7 -11 -4 -25
4 -14 2 -25 -3 -25 -5 0 -10 -19 -10 -42 0 -24 -13 -106 -29 -183 l-28 -140
-31 45 c-17 25 -41 69 -53 98 -19 45 -21 59 -12 88 8 27 7 36 -4 42 -12 7 -12
14 0 55 20 66 56 110 129 157 67 44 82 49 69 23z"/>
</g>
</svg>
